<?xml version="1.0" encoding="UTF-8"?><svg id="Layer_2" xmlns="http://www.w3.org/2000/svg" viewBox="0 0 379.41 131.77"><defs><style>.cls-1{fill:#010101;}.cls-2{fill:#fff;}.cls-3{fill:#991b1e;}</style></defs><g id="Layer_1-2"><g><g><rect class="cls-3" x="160.7" width="58" height="68"/><polygon class="cls-2" points="196.3 16.4 196.3 20 198.8 20 198.8 40.1 193.5 40.1 193.5 13.6 196.3 13.6 196.3 10 183.1 10 183.1 13.6 185.9 13.6 185.9 40.1 180.6 40.1 180.6 20 183.1 20 183.1 16.4 170.7 16.4 170.7 20 173.5 20 173.5 43.3 178.1 47.9 185.9 47.9 185.9 53.3 183.1 53.3 183.1 58 196.3 58 196.3 53.3 193.5 53.3 193.5 47.9 201.3 47.9 205.9 43.3 205.9 20 208.7 20 208.7 16.4 196.3 16.4"/></g><g><path class="cls-1" d="m48.35,83.02h3.93c.63,0,1.22.08,1.75.23.53.15.98.39,1.37.71.38.32.68.74.89,1.24.2.51.32,1.12.32,1.83,0,.78-.12,1.44-.34,1.97-.23.54-.55.96-.95,1.29-.4.33-.87.57-1.41.71-.54.15-1.12.21-1.73.21h-2.25v5.87h-1.58v-14.06Zm3.89,6.81c.46,0,.87-.05,1.22-.15.35-.09.65-.25.89-.47s.42-.5.54-.85c.12-.34.19-.76.19-1.26,0-.46-.06-.86-.19-1.2s-.3-.6-.54-.81-.54-.36-.89-.45-.77-.15-1.24-.15h-2.29v5.34h2.31Z"/><path class="cls-1" d="m58.86,83.02h7.18v1.47h-5.58v4.44h4.08v1.45h-4.08v5.26h5.91v1.45h-7.51v-14.06Z"/><path class="cls-1" d="m68.5,83.02h3.99c.68,0,1.28.08,1.81.24.53.17.97.41,1.35.74.36.33.64.74.83,1.24.19.5.29,1.09.29,1.77,0,.57-.07,1.07-.21,1.49-.15.43-.34.8-.58,1.1-.24.32-.53.57-.84.76-.32.2-.67.34-1.02.44l2.85,6.27h-1.63l-2.76-5.98h-2.49v5.98h-1.58v-14.06Zm3.89,6.71c.46,0,.87-.05,1.22-.14s.65-.24.89-.45.42-.49.54-.83c.12-.33.19-.76.19-1.26,0-.46-.06-.85-.19-1.18s-.3-.59-.53-.8c-.24-.2-.54-.34-.89-.44s-.77-.14-1.23-.14h-2.31v5.24h2.31Z"/><path class="cls-1" d="m78.38,83.02h1.6l2.12,7.61c.22.8.43,1.54.61,2.23.18.69.35,1.36.52,2.04h.05c.07-.34.16-.69.25-1.02s.19-.68.28-1.02.19-.7.29-1.06c.09-.35.2-.73.32-1.13l2.12-7.64h1.5l-4.07,14.12h-1.49l-4.07-14.12Z"/><path class="cls-1" d="m88.74,97.08h-1.5l4.13-14.12h1.48l4.13,14.12h-1.6l-1.12-4.04h-4.39l-1.12,4.04Zm4.52-7.58c-.12-.41-.23-.81-.33-1.19-.11-.38-.21-.75-.31-1.1s-.19-.7-.28-1.03-.18-.68-.26-1.01h-.04c-.09.34-.18.69-.26,1.02-.09.33-.19.68-.28,1.03s-.19.71-.31,1.08-.22.76-.33,1.17l-.6,2.18h3.61l-.61-2.14Z"/><path class="cls-1" d="m102.76,97.31c-.59,0-1.12-.08-1.6-.23-.48-.16-.91-.38-1.29-.67-.39-.29-.72-.64-1.02-1.05s-.55-.87-.76-1.38l1.36-.62c.16.37.34.71.56,1.03s.45.58.73.81c.27.22.58.4.91.52.33.13.7.19,1.1.19s.78-.05,1.11-.16c.32-.11.6-.26.83-.45s.4-.44.52-.71.19-.58.19-.94c0-.41-.08-.76-.24-1.07-.17-.3-.38-.57-.64-.81-.27-.23-.58-.45-.92-.63-.35-.19-.71-.36-1.09-.55-.3-.14-.6-.29-.91-.44s-.6-.32-.88-.49-.55-.37-.79-.59c-.24-.21-.45-.45-.64-.73-.19-.27-.32-.58-.43-.92-.11-.33-.16-.72-.16-1.16,0-.51.09-.98.29-1.41s.46-.8.81-1.11c.34-.31.75-.55,1.22-.71s.96-.26,1.51-.26,1.05.08,1.49.24.83.37,1.18.64.64.58.89.94c.25.36.46.74.63,1.14l-1.36.67c-.13-.3-.29-.58-.45-.84s-.37-.51-.59-.71c-.23-.2-.49-.36-.79-.48s-.64-.19-1.01-.19c-.33,0-.64.06-.92.15-.28.1-.51.24-.71.42-.19.19-.34.4-.45.65-.11.25-.16.52-.16.82,0,.41.07.77.23,1.07.16.31.37.58.63.81.26.24.57.45.91.64.33.19.69.37,1.06.55.3.15.6.3.91.45s.6.32.89.49c.28.19.55.38.8.59.24.22.46.46.65.74s.32.58.44.93c.1.34.16.72.16,1.15,0,.52-.1,1-.3,1.45-.19.45-.47.84-.83,1.18-.37.33-.81.6-1.33.8-.52.19-1.09.29-1.74.29Z"/><path class="cls-1" d="m109.41,83.02h1.6v14.06h-1.6v-14.06Z"/><path class="cls-1" d="m113.05,83.02h1.6l2.12,7.61c.22.8.43,1.54.61,2.23.18.69.35,1.36.52,2.04h.05c.07-.34.16-.69.25-1.02s.19-.68.28-1.02.19-.7.29-1.06c.09-.35.2-.73.32-1.13l2.12-7.64h1.5l-4.07,14.12h-1.49l-4.07-14.12Z"/><path class="cls-1" d="m124.63,83.02h7.18v1.47h-5.58v4.44h4.08v1.45h-4.08v5.26h5.91v1.45h-7.51v-14.06Z"/><path class="cls-1" d="m140.74,84.48h-3.63v-1.47h8.86v1.47h-3.64v12.6h-1.6v-12.6Z"/><path class="cls-1" d="m147.93,83.02h7.18v1.47h-5.58v4.44h4.08v1.45h-4.08v5.26h5.91v1.45h-7.51v-14.06Z"/><path class="cls-1" d="m162,97.33c-.78,0-1.48-.16-2.09-.46s-1.14-.77-1.57-1.38c-.44-.61-.77-1.38-1-2.29s-.34-1.98-.34-3.18.11-2.21.35-3.12c.24-.9.58-1.66,1.02-2.27.44-.61.96-1.08,1.59-1.39.61-.32,1.3-.47,2.06-.47.65,0,1.22.11,1.72.33.48.22.9.53,1.25.92s.64.86.86,1.4c.22.55.39,1.14.52,1.79l-1.48.27c-.11-.53-.25-.99-.41-1.4s-.35-.74-.58-1.02c-.23-.27-.5-.47-.82-.61s-.69-.21-1.09-.21c-.55,0-1.03.14-1.45.4-.43.26-.78.64-1.07,1.13-.29.5-.5,1.1-.65,1.82s-.22,1.52-.22,2.42c0,.96.07,1.8.22,2.53s.36,1.35.66,1.85c.29.5.65.88,1.08,1.14s.91.39,1.47.39c.41,0,.78-.06,1.1-.2.32-.13.6-.34.84-.62s.45-.64.64-1.07c.18-.43.32-.94.45-1.53l1.46.25c-.14.68-.33,1.3-.58,1.86-.24.57-.55,1.05-.92,1.46s-.8.73-1.3.96c-.5.21-1.08.33-1.73.33Z"/><path class="cls-1" d="m168.71,83.02h1.6v5.91h5.7v-5.91h1.6v14.06h-1.6v-6.69h-5.7v6.69h-1.6v-14.06Z"/><path class="cls-1" d="m180.49,83.02h1.86l4.41,8.61c.12.24.23.46.33.66.1.2.2.4.3.58.09.19.19.39.29.59s.2.42.32.66h.04v-11.1h1.46v14.06h-1.46l-4.71-9.06c-.14-.25-.26-.48-.36-.69-.11-.2-.21-.4-.31-.6-.1-.2-.2-.41-.31-.63-.11-.21-.23-.46-.36-.74h-.04v11.73h-1.46v-14.06Z"/><path class="cls-1" d="m196.92,97.35c-.74,0-1.42-.16-2.04-.47s-1.16-.78-1.61-1.4c-.45-.61-.81-1.38-1.06-2.29-.26-.91-.38-1.95-.38-3.14s.12-2.23.38-3.14c.25-.91.6-1.67,1.06-2.28s.99-1.09,1.61-1.4,1.3-.47,2.04-.47,1.4.16,2.02.47,1.16.79,1.61,1.4c.45.61.8,1.37,1.06,2.28.25.91.38,1.96.38,3.14s-.13,2.23-.38,3.14c-.26.91-.61,1.68-1.06,2.29-.45.62-.99,1.09-1.61,1.4s-1.3.47-2.02.47Zm0-1.45c.53,0,1.01-.13,1.44-.39s.79-.63,1.09-1.13.53-1.11.7-1.84c.16-.72.24-1.56.24-2.5s-.08-1.75-.24-2.48c-.17-.72-.4-1.33-.7-1.83s-.66-.87-1.09-1.13-.91-.39-1.44-.39-1.03.13-1.46.39c-.44.26-.81.63-1.1,1.13-.31.5-.54,1.1-.7,1.83-.17.72-.24,1.55-.24,2.48s.07,1.77.24,2.5c.16.72.39,1.34.7,1.84.3.5.67.87,1.1,1.13.43.26.92.39,1.46.39Z"/><path class="cls-1" d="m204.32,83.02h1.6v12.62h5.57v1.45h-7.16v-14.06Z"/><path class="cls-1" d="m218.03,97.35c-.74,0-1.42-.16-2.04-.47s-1.16-.78-1.61-1.4c-.45-.61-.81-1.38-1.06-2.29-.26-.91-.38-1.95-.38-3.14s.12-2.23.38-3.14c.25-.91.6-1.67,1.06-2.28s.99-1.09,1.61-1.4,1.3-.47,2.04-.47,1.4.16,2.02.47,1.16.79,1.61,1.4c.45.61.8,1.37,1.06,2.28.25.91.38,1.96.38,3.14s-.13,2.23-.38,3.14c-.26.91-.61,1.68-1.06,2.29-.45.62-.99,1.09-1.61,1.4s-1.3.47-2.02.47Zm0-1.45c.53,0,1.01-.13,1.44-.39s.79-.63,1.09-1.13.53-1.11.7-1.84c.16-.72.24-1.56.24-2.5s-.08-1.75-.24-2.48c-.17-.72-.4-1.33-.7-1.83s-.66-.87-1.09-1.13-.91-.39-1.44-.39-1.03.13-1.46.39c-.44.26-.81.63-1.1,1.13-.31.5-.54,1.1-.7,1.83-.17.72-.24,1.55-.24,2.48s.07,1.77.24,2.5c.16.72.39,1.34.7,1.84.3.5.67.87,1.1,1.13.43.26.92.39,1.46.39Z"/><path class="cls-1" d="m229.74,97.33c-.78,0-1.48-.17-2.08-.48-.61-.32-1.12-.8-1.54-1.43-.42-.62-.73-1.39-.95-2.3-.22-.91-.32-1.94-.32-3.11s.11-2.15.34-3.05c.22-.9.56-1.66.98-2.28s.96-1.09,1.58-1.43c.62-.32,1.33-.49,2.12-.49.62,0,1.17.1,1.65.31s.89.5,1.24.88c.35.39.64.85.87,1.4.23.56.42,1.17.57,1.86l-1.45.29c-.24-1.09-.58-1.92-1.04-2.46s-1.09-.81-1.88-.81c-.52,0-.98.12-1.4.36s-.77.6-1.07,1.09-.52,1.09-.68,1.8c-.17.72-.24,1.56-.24,2.5,0,1.99.3,3.47.91,4.45.6.98,1.46,1.48,2.55,1.48.93,0,1.66-.34,2.18-1.05s.79-1.74.83-3.14h-2.68v-1.36h4.1v6.73h-1.27v-1.92h-.02c-.11.27-.27.53-.46.79s-.43.49-.7.7c-.28.2-.59.37-.95.49-.36.13-.76.19-1.2.19Z"/><path class="cls-1" d="m239.78,91.28l-3.9-8.27h1.63l3.08,6.81h.04l3.08-6.81h1.53l-3.87,8.23v5.84h-1.6v-5.8Z"/><path class="cls-1" d="m250.92,83.02h1.6v14.06h-1.6v-14.06Z"/><path class="cls-1" d="m255.52,83.02h1.86l4.41,8.61c.12.24.23.46.33.66.1.2.2.4.3.58.09.19.19.39.29.59s.2.42.32.66h.04v-11.1h1.46v14.06h-1.46l-4.71-9.06c-.14-.25-.26-.48-.36-.69-.11-.2-.21-.4-.31-.6-.1-.2-.2-.41-.31-.63-.11-.21-.23-.46-.36-.74h-.04v11.73h-1.46v-14.06Z"/><path class="cls-1" d="m271.28,97.31c-.59,0-1.12-.08-1.6-.23-.48-.16-.91-.38-1.29-.67-.39-.29-.72-.64-1.02-1.05s-.55-.87-.76-1.38l1.36-.62c.16.37.34.71.56,1.03s.45.58.73.81c.27.22.58.4.91.52.33.13.7.19,1.1.19s.78-.05,1.11-.16c.32-.11.6-.26.83-.45s.4-.44.52-.71.19-.58.19-.94c0-.41-.08-.76-.24-1.07-.17-.3-.38-.57-.64-.81-.27-.23-.58-.45-.92-.63-.35-.19-.71-.36-1.09-.55-.3-.14-.6-.29-.91-.44s-.6-.32-.88-.49-.55-.37-.79-.59c-.24-.21-.45-.45-.64-.73-.19-.27-.32-.58-.43-.92-.11-.33-.16-.72-.16-1.16,0-.51.09-.98.29-1.41s.46-.8.81-1.11c.34-.31.75-.55,1.22-.71s.96-.26,1.51-.26,1.05.08,1.49.24.83.37,1.18.64.64.58.89.94c.25.36.46.74.63,1.14l-1.36.67c-.13-.3-.29-.58-.45-.84s-.37-.51-.59-.71c-.23-.2-.49-.36-.79-.48s-.64-.19-1.01-.19c-.33,0-.64.06-.92.15-.28.1-.51.24-.71.42-.19.19-.34.4-.45.65-.11.25-.16.52-.16.82,0,.41.07.77.23,1.07.16.31.37.58.63.81.26.24.57.45.91.64.33.19.69.37,1.06.55.3.15.6.3.91.45s.6.32.89.49c.28.19.55.38.8.59.24.22.46.46.65.74s.32.58.44.93c.1.34.16.72.16,1.15,0,.52-.1,1-.3,1.45-.19.45-.47.84-.83,1.18-.37.33-.81.6-1.33.8-.52.19-1.09.29-1.74.29Z"/><path class="cls-1" d="m280.49,84.48h-3.63v-1.47h8.86v1.47h-3.64v12.6h-1.6v-12.6Z"/><path class="cls-1" d="m287.79,83.02h1.6v14.06h-1.6v-14.06Z"/><path class="cls-1" d="m295.07,84.48h-3.63v-1.47h8.86v1.47h-3.64v12.6h-1.6v-12.6Z"/><path class="cls-1" d="m306.52,97.33c-.78,0-1.45-.12-2-.34-.56-.23-1-.57-1.35-.99s-.61-.94-.78-1.53-.25-1.26-.25-2v-9.44h1.6v9.24c0,.59.05,1.11.14,1.57s.26.83.48,1.14c.22.32.51.55.87.71.35.17.8.24,1.32.24s.96-.07,1.32-.24c.35-.16.65-.39.87-.71s.38-.7.48-1.14c.09-.45.15-.96.15-1.54v-9.28h1.53v9.41c0,.72-.08,1.38-.25,1.98-.17.6-.43,1.12-.78,1.56s-.81.77-1.36,1.01-1.22.36-1.98.36Z"/><path class="cls-1" d="m316.37,84.48h-3.63v-1.47h8.86v1.47h-3.64v12.6h-1.6v-12.6Z"/><path class="cls-1" d="m323.56,83.02h7.18v1.47h-5.58v4.44h4.08v1.45h-4.08v5.26h5.91v1.45h-7.51v-14.06Z"/></g><g><path class="cls-1" d="m0,107.15h7.54c1.27,0,2.41.14,3.43.43s1.88.73,2.58,1.34,1.23,1.4,1.61,2.36.57,2.12.57,3.46c0,.83-.11,1.58-.3,2.26s-.46,1.29-.81,1.83-.78,1-1.26,1.39c-.49.4-1.04.72-1.61.94l4.61,10.15h-5.13l-4.08-8.94h-2.28v8.94H0v-24.16Zm7.38,11.43c.61,0,1.13-.06,1.58-.19s.83-.35,1.13-.65c.3-.29.53-.67.69-1.15.14-.48.22-1.05.22-1.75,0-.64-.08-1.2-.22-1.64-.16-.45-.38-.81-.69-1.1-.3-.27-.69-.46-1.13-.59s-.97-.19-1.58-.19h-2.52v7.27h2.52Z"/><path class="cls-1" d="m19.35,107.15h13.83v4.19h-8.88v5.45h6.41v3.94h-6.41v6.5h9.34v4.08h-14.3v-24.16Z"/><path class="cls-1" d="m44.48,131.74c-1.18,0-2.25-.14-3.19-.43-.94-.27-1.78-.65-2.52-1.16s-1.39-1.12-1.93-1.82c-.56-.7-1.04-1.48-1.45-2.34l4.02-2.02c.25.53.56,1.02.91,1.48.33.46.72.86,1.13,1.21s.88.64,1.39.83c.49.21,1.04.3,1.64.3,1.05,0,1.83-.24,2.37-.75s.81-1.16.81-1.99c0-.49-.13-.92-.35-1.31-.24-.37-.56-.7-.94-1s-.84-.57-1.35-.83-1.05-.49-1.63-.75c-.8-.32-1.61-.69-2.44-1.08-.83-.38-1.59-.88-2.28-1.45s-1.24-1.29-1.67-2.12c-.45-.83-.65-1.86-.65-3.08,0-.99.19-1.91.57-2.74s.91-1.53,1.59-2.12,1.5-1.05,2.44-1.37c.92-.32,1.94-.49,3.06-.49,1.02,0,1.96.14,2.8.41.83.27,1.59.65,2.26,1.13s1.24,1.05,1.75,1.71c.49.67.92,1.37,1.31,2.14l-3.86,2.09c-.25-.51-.54-.97-.83-1.39s-.62-.76-.97-1.07c-.37-.29-.76-.53-1.18-.69s-.88-.25-1.39-.25c-.45,0-.83.06-1.16.19s-.62.29-.84.51c-.24.22-.41.48-.53.76-.13.29-.18.61-.18.94,0,.48.1.91.32,1.27.21.38.49.72.86,1s.8.56,1.27.81.99.49,1.53.73,1.08.48,1.66.73,1.13.53,1.67.83c.54.32,1.05.67,1.53,1.05s.91.83,1.27,1.32c.37.51.65,1.07.88,1.71.21.64.32,1.37.32,2.18,0,.92-.18,1.8-.53,2.63s-.86,1.56-1.53,2.2c-.69.64-1.53,1.13-2.53,1.51-1,.37-2.15.56-3.46.56Z"/><path class="cls-1" d="m55.7,107.15h13.83v4.19h-8.88v5.45h6.41v3.94h-6.41v6.5h9.34v4.08h-14.3v-24.16Z"/><path class="cls-1" d="m75.86,131.31h-4.62l7.08-24.26h4.77l7.08,24.26h-4.99l-1.31-5.08h-6.66l-1.34,5.08Zm6.37-11.4c-.16-.64-.32-1.23-.46-1.78-.16-.54-.3-1.08-.43-1.61-.14-.53-.27-1.05-.4-1.56s-.24-1.05-.35-1.63h-.06c-.11.57-.22,1.12-.35,1.63s-.25,1.04-.38,1.55c-.14.53-.29,1.07-.45,1.61s-.32,1.13-.48,1.77l-.65,2.49h4.64l-.62-2.45Z"/><path class="cls-1" d="m92.52,107.15h7.54c1.27,0,2.41.14,3.43.43s1.88.73,2.58,1.34,1.23,1.4,1.61,2.36.57,2.12.57,3.46c0,.83-.11,1.58-.3,2.26s-.46,1.29-.81,1.83-.78,1-1.26,1.39c-.49.4-1.04.72-1.61.94l4.61,10.15h-5.13l-4.08-8.94h-2.28v8.94h-4.86v-24.16Zm7.38,11.43c.61,0,1.13-.06,1.58-.19s.83-.35,1.13-.65c.3-.29.53-.67.69-1.15.14-.48.22-1.05.22-1.75,0-.64-.08-1.2-.22-1.64-.16-.45-.38-.81-.69-1.1-.3-.27-.69-.46-1.13-.59s-.97-.19-1.58-.19h-2.52v7.27h2.52Z"/><path class="cls-1" d="m120.18,131.74c-1.4,0-2.66-.25-3.79-.73-1.15-.48-2.12-1.24-2.92-2.26-.81-1.02-1.43-2.33-1.88-3.9s-.67-3.46-.67-5.64.22-4,.69-5.58c.46-1.56,1.12-2.87,1.94-3.89s1.82-1.78,2.96-2.28,2.41-.75,3.79-.75c1.31,0,2.44.21,3.39.59.96.4,1.75.96,2.41,1.67.65.73,1.18,1.61,1.56,2.63s.67,2.17.86,3.43l-4.65.81c-.14-.83-.32-1.55-.51-2.15s-.45-1.12-.73-1.53c-.29-.4-.64-.7-1.04-.91-.41-.19-.89-.3-1.45-.3-1.43,0-2.5.72-3.2,2.12-.7,1.42-1.04,3.46-1.04,6.14s.35,4.84,1.05,6.3,1.78,2.17,3.25,2.17c.56,0,1.05-.1,1.47-.29s.78-.51,1.1-.92.57-.96.8-1.63c.21-.67.4-1.47.56-2.39l4.67.75c-.22,1.21-.54,2.34-.96,3.39s-.97,1.94-1.64,2.71c-.69.76-1.51,1.37-2.5,1.8s-2.17.65-3.52.65Z"/><path class="cls-1" d="m131.61,107.15h4.96v9.47h7.22v-9.47h4.96v24.16h-4.96v-10.58h-7.22v10.58h-4.96v-24.16Z"/><path class="cls-1" d="m164.32,111.34h-5.74v-4.19h16.48v4.19h-5.77v19.97h-4.97v-19.97Z"/><path class="cls-1" d="m177.58,107.15h13.83v4.19h-8.88v5.45h6.41v3.94h-6.41v6.5h9.34v4.08h-14.3v-24.16Z"/><path class="cls-1" d="m203.06,131.74c-1.4,0-2.66-.25-3.79-.73-1.15-.48-2.12-1.24-2.92-2.26-.81-1.02-1.43-2.33-1.88-3.9s-.67-3.46-.67-5.64.22-4,.69-5.58c.46-1.56,1.12-2.87,1.94-3.89s1.82-1.78,2.96-2.28,2.41-.75,3.79-.75c1.31,0,2.44.21,3.39.59.96.4,1.75.96,2.41,1.67.65.73,1.18,1.61,1.56,2.63s.67,2.17.86,3.43l-4.65.81c-.14-.83-.32-1.55-.51-2.15s-.45-1.12-.73-1.53c-.29-.4-.64-.7-1.04-.91-.41-.19-.89-.3-1.45-.3-1.43,0-2.5.72-3.2,2.12-.7,1.42-1.04,3.46-1.04,6.14s.35,4.84,1.05,6.3,1.78,2.17,3.25,2.17c.56,0,1.05-.1,1.47-.29s.78-.51,1.1-.92.57-.96.8-1.63c.21-.67.4-1.47.56-2.39l4.67.75c-.22,1.21-.54,2.34-.96,3.39s-.97,1.94-1.64,2.71c-.69.76-1.51,1.37-2.5,1.8s-2.17.65-3.52.65Z"/><path class="cls-1" d="m214.49,107.15h4.96v9.47h7.22v-9.47h4.96v24.16h-4.96v-10.58h-7.22v10.58h-4.96v-24.16Z"/><path class="cls-1" d="m235.6,107.15h5.12l5.56,10.84c.19.38.35.73.51,1.05s.3.62.46.92c.14.32.29.64.45.99s.33.75.54,1.2h.06v-15h4.49v24.16h-4.61l-6.26-11.71c-.18-.32-.33-.62-.46-.89-.14-.25-.29-.53-.41-.8-.13-.25-.27-.54-.4-.84-.14-.3-.3-.65-.48-1.07h-.06v15.32h-4.51v-24.16Z"/><path class="cls-1" d="m265.53,131.77c-1.31,0-2.55-.25-3.71-.73-1.16-.49-2.18-1.26-3.04-2.29-.88-1.02-1.56-2.33-2.07-3.9-.51-1.56-.76-3.44-.76-5.61s.25-4.02.76-5.59,1.2-2.88,2.07-3.9c.86-1.02,1.88-1.78,3.04-2.28s2.41-.75,3.71-.75,2.52.25,3.68.75c1.15.49,2.17,1.26,3.04,2.28.86,1.02,1.56,2.33,2.07,3.9s.76,3.44.76,5.59-.25,4.05-.76,5.61c-.51,1.58-1.21,2.88-2.07,3.9-.88,1.04-1.9,1.8-3.04,2.29-1.16.48-2.39.73-3.68.73Zm0-4.11c.73,0,1.39-.18,1.96-.56s1.05-.92,1.43-1.64.67-1.59.86-2.65.3-2.25.3-3.59c0-2.68-.4-4.72-1.18-6.15-.78-1.42-1.91-2.14-3.38-2.14s-2.66.72-3.44,2.14c-.78,1.43-1.16,3.47-1.16,6.15,0,1.34.1,2.53.29,3.59s.49,1.93.88,2.65.88,1.26,1.45,1.64,1.23.56,1.99.56Z"/><path class="cls-1" d="m278.16,107.15h4.96v20.08h9.08v4.08h-14.04v-24.16Z"/><path class="cls-1" d="m303.53,131.77c-1.31,0-2.55-.25-3.71-.73-1.16-.49-2.18-1.26-3.04-2.29-.88-1.02-1.56-2.33-2.07-3.9-.51-1.56-.76-3.44-.76-5.61s.25-4.02.76-5.59,1.2-2.88,2.07-3.9c.86-1.02,1.88-1.78,3.04-2.28s2.41-.75,3.71-.75,2.52.25,3.68.75c1.15.49,2.17,1.26,3.04,2.28.86,1.02,1.56,2.33,2.07,3.9s.76,3.44.76,5.59-.25,4.05-.76,5.61c-.51,1.58-1.21,2.88-2.07,3.9-.88,1.04-1.9,1.8-3.04,2.29-1.16.48-2.39.73-3.68.73Zm0-4.11c.73,0,1.39-.18,1.96-.56s1.05-.92,1.43-1.64.67-1.59.86-2.65.3-2.25.3-3.59c0-2.68-.4-4.72-1.18-6.15-.78-1.42-1.91-2.14-3.38-2.14s-2.66.72-3.44,2.14c-.78,1.43-1.16,3.47-1.16,6.15,0,1.34.1,2.53.29,3.59s.49,1.93.88,2.65.88,1.26,1.45,1.64,1.23.56,1.99.56Z"/><path class="cls-1" d="m323.98,131.71c-1.43,0-2.69-.29-3.78-.84-1.1-.57-2.02-1.39-2.76-2.47-.73-1.07-1.29-2.37-1.67-3.94s-.56-3.31-.56-5.29.19-3.75.61-5.29,1.02-2.85,1.82-3.92c.8-1.05,1.77-1.86,2.95-2.42,1.16-.54,2.5-.83,4.02-.83,1.15,0,2.17.18,3.08.49.89.32,1.69.83,2.36,1.5s1.23,1.53,1.67,2.58.8,2.31,1.05,3.75l-4.49.88c-.18-.91-.38-1.67-.61-2.31-.24-.64-.51-1.15-.83-1.53s-.67-.67-1.05-.84c-.4-.18-.84-.27-1.34-.27-.57,0-1.1.13-1.61.38s-.97.69-1.35,1.29c-.4.62-.72,1.45-.94,2.5s-.33,2.39-.33,3.98.1,3,.32,4.08c.22,1.1.53,1.98.92,2.65s.88,1.13,1.43,1.42c.54.29,1.16.41,1.83.41,1.12,0,2.01-.38,2.68-1.16.67-.76,1.1-1.93,1.26-3.47h-3.49v-3.73h7.97v12.02h-3.65v-3.11h-.05c-.16.41-.38.81-.69,1.23s-.69.8-1.15,1.13c-.46.35-.99.62-1.59.83s-1.29.32-2.02.32Z"/><path class="cls-1" d="m337.11,107.15h4.97v24.16h-4.97v-24.16Z"/><path class="cls-1" d="m346.23,107.15h13.83v4.19h-8.88v5.45h6.41v3.94h-6.41v6.5h9.34v4.08h-14.3v-24.16Z"/><path class="cls-1" d="m371.36,131.74c-1.18,0-2.25-.14-3.19-.43-.94-.27-1.78-.65-2.52-1.16s-1.39-1.12-1.93-1.82c-.56-.7-1.04-1.48-1.45-2.34l4.02-2.02c.25.53.56,1.02.91,1.48.33.46.72.86,1.13,1.21s.88.64,1.39.83c.49.21,1.04.3,1.64.3,1.05,0,1.83-.24,2.37-.75s.81-1.16.81-1.99c0-.49-.13-.92-.35-1.31-.24-.37-.56-.7-.94-1s-.84-.57-1.35-.83-1.05-.49-1.63-.75c-.8-.32-1.61-.69-2.44-1.08-.83-.38-1.59-.88-2.28-1.45s-1.24-1.29-1.67-2.12c-.45-.83-.65-1.86-.65-3.08,0-.99.19-1.91.57-2.74s.91-1.53,1.59-2.12,1.5-1.05,2.44-1.37c.92-.32,1.94-.49,3.06-.49,1.02,0,1.96.14,2.8.41.83.27,1.59.65,2.26,1.13s1.24,1.05,1.75,1.71c.49.67.92,1.37,1.31,2.14l-3.86,2.09c-.25-.51-.54-.97-.83-1.39s-.62-.76-.97-1.07c-.37-.29-.76-.53-1.18-.69s-.88-.25-1.39-.25c-.45,0-.83.06-1.16.19s-.62.29-.84.51c-.24.22-.41.48-.53.76-.13.29-.18.61-.18.94,0,.48.1.91.32,1.27.21.38.49.72.86,1s.8.56,1.27.81.99.49,1.53.73,1.08.48,1.66.73,1.13.53,1.67.83c.54.32,1.05.67,1.53,1.05s.91.83,1.27,1.32c.37.51.65,1.07.88,1.71.21.64.32,1.37.32,2.18,0,.92-.18,1.8-.53,2.63s-.86,1.56-1.53,2.2c-.69.64-1.53,1.13-2.53,1.51-1,.37-2.15.56-3.46.56Z"/></g></g></g></svg>